<?xml version="1.0" encoding="utf-8"?>
<!-- Generator: Adobe Illustrator 24.2.3, SVG Export Plug-In . SVG Version: 6.00 Build 0)  -->
<svg version="1.1" baseProfile="tiny" id="Ebene_2" xmlns="http://www.w3.org/2000/svg" xmlns:xlink="http://www.w3.org/1999/xlink"
	 x="0px" y="0px" viewBox="0 0 424.5 41" overflow="visible" xml:space="preserve">
<g>
	<g>
		<path fill="#249DD9" d="M17.3,0H0v40.1h17.3c12.5,0,19.7-7.4,19.7-20.2C37,7.4,29.6,0,17.3,0z M10.7,9.3h4.7
			c7.2,0,10.8,3.6,10.8,10.6c0,7.8-3,10.9-10.8,11h-4.7V9.3z"/>
		<rect x="41.1" y="10.9" fill="#249DD9" width="9.8" height="29.3"/>
		<rect x="41.1" y="0" fill="#249DD9" width="9.8" height="7.6"/>
		<path fill="#249DD9" d="M83.9,32.6V19.9c0-8.8-7.8-9.9-13.7-9.9c-2.6,0-6.3,0.4-9.3,2c-2.9,1.7-4.4,4.4-4.6,7.9l0,0.2h9.2l0-0.1
			c0.4-2.3,2-3.5,4.6-3.5c1.8,0,4.4,0.8,4.4,2.8c0,1.7-0.8,2.2-2.4,2.5c-1.2,0.2-2.5,0.4-3.8,0.6c-6.1,0.8-13.1,1.7-13.1,9.6
			c0,5.5,3.8,8.9,10,8.9c3.8,0,7.2-1.2,9.4-3.4c0.1,0.8,0.2,1.6,0.5,2.4l0,0.1h9.9L85,39.9C83.9,37.6,83.9,34.9,83.9,32.6z
			 M68.8,34.8c-2.4,0-3.8-1.2-3.8-3.1c0-1.8,1.1-2.9,3.8-3.5c0.7-0.2,1.5-0.3,2.2-0.5c1.3-0.3,2.5-0.5,3.4-1
			c0.1,3.4-0.4,5.5-1.6,6.7C71.9,34.3,70.6,34.8,68.8,34.8z"/>
		<polygon fill="#249DD9" points="119.2,10.9 107.7,10.9 99.3,20.2 99.3,0 89.5,0 89.5,40.1 99.3,40.1 99.3,30.8 101.6,28.6 
			108.5,40.1 108.6,40.1 120.4,40.1 108.4,22 		"/>
		<path fill="#249DD9" d="M134.8,10c-8.9,0-15.4,6.5-15.4,15.5c0,8.9,6.5,15.4,15.4,15.4c8.9,0,15.4-6.5,15.4-15.4
			C150.3,16.6,143.8,10,134.8,10z M134.8,33.4c-5.2,0-5.6-6-5.6-7.8c0-1.9,0.4-7.9,5.6-7.9c4.1,0,5.6,4.1,5.6,7.9
			C140.5,29.3,139,33.4,134.8,33.4z"/>
		<path fill="#249DD9" d="M172.9,10c-3.6,0-7.2,1.8-9,4.5v-3.7h-9.5v29.3h9.8V24.2c0-2.8,1.3-6,5-6c1.5,0,2.6,0.4,3.4,1.1
			c1.2,1.3,1.2,3.5,1.2,5.8c0,0.3,0,0.6,0,0.9v14.2h9.8V21.4C183.5,18.6,183.5,10,172.9,10z"/>
		<rect x="189.2" y="0" fill="#249DD9" width="9.8" height="7.6"/>
		<rect x="189.2" y="10.9" fill="#249DD9" width="9.8" height="29.3"/>
		<path fill="#249DD9" d="M218.6,10c-8.8,0-15.8,6.8-15.8,15.4c0,9.6,6.1,15.6,16,15.6c7.5,0,13-3.6,14.5-9.7l0.1-0.2h-9.2l0,0.1
			c-0.8,1.9-2.8,3.1-5.2,3.1c-3.7,0-6-2.3-6.3-6.2h21.2l0-0.2c0.3-5.5-1.3-10.3-4.3-13.5C226.9,11.5,223.1,10,218.6,10z M218.6,16.8
			c2.9,0,5.2,2.4,5.4,5.6h-11.4C213.3,18.9,215.6,16.8,218.6,16.8z"/>
		<polygon fill="#249DD9" points="271.4,10.9 266.7,29.2 262.6,11 262.6,10.9 253.3,10.9 249.2,29.2 244.5,11 244.5,10.9 
			234.5,10.9 243.6,40 243.7,40.1 253.5,40.1 257.9,21.3 262.4,40 262.4,40.1 272.3,40.1 281.4,10.9 		"/>
		<path fill="#249DD9" d="M297.2,10c-8.8,0-15.8,6.8-15.8,15.4c0,9.6,6.1,15.6,16,15.6c7.5,0,13-3.6,14.5-9.7L312,31h-9.2l0,0.1
			c-0.8,1.9-2.8,3.1-5.2,3.1c-3.7,0-6-2.3-6.3-6.2h21.2l0-0.2c0.3-5.5-1.3-10.3-4.3-13.5C305.4,11.5,301.6,10,297.2,10z M297.2,16.8
			c2.9,0,5.2,2.4,5.4,5.6h-11.4C291.8,18.9,294.1,16.8,297.2,16.8z"/>
		<path fill="#249DD9" d="M334.8,10.3c-4,0-7.1,1.9-8.6,5.2v-4.6h-9.5v29.3h9.8V25.6c0-3.3,2.2-6.7,7-6.7c1.4,0,2.5,0.3,3.6,0.6
			l0.2,0.1v-9l-0.1,0C336.4,10.4,335.6,10.3,334.8,10.3z"/>
		<polygon fill="#249DD9" points="358.9,22 369.7,10.9 358.2,10.9 349.8,20.2 349.8,0 340,0 340,40.1 349.8,40.1 349.8,30.8 
			352.1,28.6 359,40.1 359.1,40.1 370.9,40.1 		"/>
	</g>
	<g>
		<path fill="#249DD9" d="M397.3,18.4c-3,0-5.5-2.4-5.5-5.2c0-2.9,2.5-5.3,5.5-5.3c3,0,5.5,2.3,5.5,5.3v5.2H397.3L397.3,18.4z"/>
		<path fill="#249DD9" d="M402.8,0h-18.4v18.4h6.2c-1.2-1.4-2-3.3-2-5.2c0-4.7,3.9-8.4,8.7-8.4c2.1,0,4,0.7,5.5,1.8V0L402.8,0z"/>
		<path fill="#249DD9" d="M411.6,18.4c3.1,0,5.5-2.4,5.5-5.2c0-2.9-2.4-5.3-5.5-5.3c-3,0-5.5,2.3-5.5,5.3v5.2H411.6L411.6,18.4z"/>
		<path fill="#249DD9" d="M406.1,0h18.4v18.4h-6.2c1.2-1.4,1.9-3.3,1.9-5.2c0-4.7-3.9-8.4-8.7-8.4c-2.1,0-4,0.7-5.5,1.8V0z"/>
		<polygon fill="#249DD9" points="384.4,21.7 402.8,21.7 402.8,40.1 384.4,40.1 384.4,21.7 		"/>
		<polygon fill="#249DD9" points="406.1,21.7 424.5,21.7 424.5,40.1 406.1,40.1 406.1,21.7 		"/>
	</g>
</g>
</svg>
